
<?xml version="1.0" encoding="utf-8"?>
<!-- Generator: Adobe Illustrator 16.0.0, SVG Export Plug-In . SVG Version: 6.00 Build 0)  -->
<!DOCTYPE svg PUBLIC "-//W3C//DTD SVG 1.1//EN" "http://www.w3.org/Graphics/SVG/1.1/DTD/svg11.dtd">
<svg version="1.1" id="Layer_1" xmlns="http://www.w3.org/2000/svg" xmlns:xlink="http://www.w3.org/1999/xlink" x="0px" y="0px"
	 width="117.485px" height="20px" viewBox="0 0 117.485 20" enable-background="new 0 0 117.485 20" xml:space="preserve">
<path fill="#FFFFFF" d="M20.895,18.88v-4.228c0-1.068-0.13-1.876-0.384-2.398c-0.242-0.494-0.627-0.896-1.178-1.229l-1.135-0.683
	l1.066-0.787c0.6-0.443,1.001-0.951,1.228-1.557c0.248-0.658,0.372-1.371,0.372-2.117c0-0.674-0.126-1.836-0.375-2.444
	c-0.254-0.616-0.603-1.164-1.036-1.624c-0.487-0.516-1.101-0.938-1.825-1.252c-0.72-0.315-1.673-0.475-2.832-0.475H0.494
	C0,0.087,0,0.205,0,0.517V20h3.982v-6.97h9.331c1.041,0,2.1,0.212,2.618,0.647c0.554,0.469,0.835,1.181,0.835,2.117v3.681
	c0,0.177,0.004,0.353,0.014,0.524h4.129C20.898,19.716,20.895,19.358,20.895,18.88 M16.199,8.052
	c-0.243,0.31-0.547,0.56-0.908,0.746c-0.369,0.187-0.825,0.283-1.351,0.283H3.982V4.776c0-0.798,0.553-1.355,1.346-1.355h8.612
	c0.925,0,1.649,0.286,2.151,0.849c0.454,0.473,0.693,1.091,0.693,1.791C16.784,6.661,16.585,7.566,16.199,8.052"/>
<path fill="#FFFFFF" d="M117.471,18.88v-4.228c0-1.068-0.13-1.876-0.384-2.398c-0.243-0.494-0.628-0.896-1.179-1.229l-1.136-0.683
	l1.067-0.787c0.599-0.443,1.001-0.951,1.228-1.557c0.247-0.658,0.372-1.371,0.372-2.117c0-0.674-0.126-1.836-0.376-2.444
	c-0.255-0.616-0.604-1.164-1.036-1.624c-0.487-0.516-1.102-0.938-1.823-1.252c-0.721-0.315-1.674-0.475-2.833-0.475H97.07
	c-0.493,0-0.493,0.117-0.493,0.43V20h3.982v-6.97h9.331c1.041,0,2.1,0.212,2.616,0.647c0.555,0.469,0.837,1.181,0.837,2.117v3.681
	c0,0.177,0.004,0.353,0.013,0.524h4.129C117.476,19.716,117.471,19.358,117.471,18.88 M112.775,8.052
	c-0.241,0.31-0.547,0.56-0.908,0.746c-0.369,0.187-0.823,0.283-1.352,0.283h-9.956V4.776c0-0.798,0.553-1.355,1.345-1.355h8.611
	c0.927,0,1.65,0.286,2.151,0.849c0.454,0.473,0.693,1.091,0.693,1.791C113.36,6.661,113.162,7.566,112.775,8.052"/>
<path fill="#FFFFFF" d="M25.921,20c-1.458,0-2.025-0.577-2.025-2.06V2.079c0-1.415,0.576-1.966,2.055-1.966h17.953V4.07H29.351
	c-0.824,0-1.376,0.569-1.376,1.417v2.565h15.838v3.983H27.975v2.533c0,0.867,0.553,1.449,1.376,1.449h14.553V20H25.921z"/>
<path fill="#FFFFFF" d="M75.703,20c-1.457,0-2.025-0.577-2.025-2.06V2.079c0-1.415,0.576-1.966,2.055-1.966h17.953V4.07H79.133
	c-0.824,0-1.377,0.569-1.377,1.417v2.565h15.839v3.983H77.756v2.533c0,0.867,0.553,1.449,1.377,1.449h14.553V20H75.703z"/>
<path fill="#FFFFFF" d="M58.743,19.928c-2.498,0-3.611-1.099-4.609-3.357L46.796,0.087h4.978c0.018,0.056,6.267,14.851,6.267,14.851
	c0.17,0.382,0.403,0.676,0.694,0.874c0.037,0.024,0.055,0.029,0.069,0.023c0.297-0.196,0.525-0.496,0.7-0.919
	c0,0,6.18-14.756,6.208-14.83h5.062L63.496,16.57c-0.518,1.15-1.195,2.01-2.007,2.55C60.68,19.655,60.028,19.928,58.743,19.928"/>
</svg>
